<?xml version="1.0" encoding="UTF-8"?>
<svg width="50px" height="50px" version="1.1" viewBox="0 0 700 700" xmlns="http://www.w3.org/2000/svg" xmlns:xlink="http://www.w3.org/1999/xlink">
 <g>
  <path d="m418.78 246.42c0.54297 1.7578 2.9727 2.3359 4.457 1.6406 1.8555-0.84375 2.1836-2.7148 1.6523-4.4531-0.78516-2.5586-1.8594-5.0195-2.9297-7.4648-1.7188-3.9688-7.8438-1.1523-6.1094 2.8125 1.0742 2.457 2.1641 4.9219 2.9297 7.4648z"/>
  <path d="m407.2 243.23c0.94141 1.7969 1.0703 3.7227 1.3672 5.6719 0.67188 4.2852 7.3008 3.1797 6.6367-1.0977-0.38672-2.543-0.68359-5.0742-1.9102-7.3906-2.0156-3.8086-8.1133-1.0195-6.0938 2.8164z"/>
  <path d="m404.25 223.25c0.6875 1.0312 1.0117 2.2617 1.2305 3.4727 0.78516 4.2461 7.4023 3.1602 6.6367-1.1133-0.45312-2.4375-1.3203-4.5977-2.6992-6.6602-1.0312-1.5117-3.4453-1.5117-4.7266-0.42578-1.5195 1.25-1.4648 3.2227-0.44141 4.7266z"/>
  <path d="m398.5 204.07c2.5547 3.5 7.7109-0.80078 5.1758-4.3008l-3.3164-4.5469c-2.543-3.5117-7.7109 0.78906-5.1641 4.2969z"/>
  <path d="m291.17 227.54c0.16797-1.3984 0.52734-2.6484 1.3086-3.832 2.4375-3.5781-3.0312-7.5039-5.4414-3.9023-1.4688 2.1406-2.2109 4.4688-2.5742 7.0391-0.5625 4.2969 6.1406 4.9766 6.707 0.69531z"/>
  <path d="m281.29 226.34c0.23047-3.5039 0.84375-7.1406 2.5586-10.266 0.875-1.6055 0.84375-3.5352-0.78516-4.6914-1.3398-0.96484-3.8203-0.82812-4.6797 0.77344-2.3086 4.1992-3.5 8.7266-3.7539 13.48-0.25781 4.3086 6.4297 5.0234 6.6602 0.70312z"/>
  <path d="m293.61 204.81c0.92969-1.0352 1.6523-2.2344 2.582-3.2656 1.2148-1.3711 0.56641-3.707-0.78516-4.6758-1.6055-1.1641-3.4727-0.59766-4.6719 0.76562-0.95312 1.0352-1.6523 2.2109-2.5742 3.2656-1.2383 1.3594-0.59375 3.7031 0.75781 4.6797 1.6172 1.1562 3.4805 0.58984 4.6914-0.76953z"/>
  <path d="m281.14 201.48c1.2266-1.6914 2.4375-3.4453 3.8789-4.9375 1.2812-1.293 1.707-3.2148 0.44922-4.7227-1.0586-1.3008-3.4609-1.7578-4.7305-0.44922-1.875 1.9258-3.4844 4.0078-5.0469 6.1992-2.5156 3.5312 2.918 7.4453 5.4492 3.9102z"/>
  <path d="m270.53 246.33c1.6016 0.62891 3.8398-0.17969 4.3359-1.9414 0.64453-2.2734 0.94531-4.5547 0.91797-6.9141-0.035156-1.832-1.0117-3.4766-2.9961-3.6836-1.6523-0.19141-3.7109 1.1328-3.6914 2.9844 0.015625 1.7305-0.015625 3.543-0.49219 5.2266-0.50391 1.7578 0.10938 3.6367 1.9258 4.3281z"/>
  <path d="m292.77 190.5c1.5078 0.050781 3.0195 0.054688 4.5312 0.10547 1.8359 0.042969 3.5117-1.0703 3.7188-3 0.16797-1.707-1.1602-3.625-2.9961-3.6914-1.5234-0.035156-3.0352-0.050781-4.5586-0.10156-1.8359-0.050781-3.4883 1.0703-3.6953 2.9922-0.17578 1.7305 1.1602 3.6523 3 3.6953z"/>
  <path d="m585.57 276.92c-1.6406 0.26953-3.2539 2.0898-2.7539 3.8633 0.62891 2.2109 0.17969 4.2734-0.95312 6.2656-0.90234 1.5898-0.83984 3.5234 0.75781 4.6797 1.3945 0.97266 3.793 0.81641 4.7148-0.77734 1.9336-3.4258 3.2148-7.332 2.1094-11.266-0.49609-1.7695-1.9297-3.0859-3.875-2.7656z"/>
  <path d="m575.8 290.73c2.8047-4.0664 4.8828-9.9023 1.1797-14.113-2.8711-3.2383-8.0469 1.043-5.1797 4.3008 1.4375 1.6133-0.49219 4.4922-1.4727 5.8906-2.4414 3.5703 3.0117 7.4961 5.4727 3.9219z"/>
  <path d="m572.73 266.23c0.84375 0.46094 1.7305 1.0039 2.1523 1.8633 1.8984 3.8789 8.0195 1.0742 6.0859-2.8242-1.2539-2.5742-3.3828-4-5.8477-5.3203-1.6172-0.86719-3.7539 0.37891-4.3438 1.9375-0.69922 1.8867 0.33984 3.4922 1.9531 4.3438z"/>
  <path d="m576.2 299.05c-1.7031 1.8867-3.6641 3.5742-5.6953 5.0898-3.4961 2.5742 0.80078 7.75 4.2891 5.168 2.5195-1.8594 4.75-4.0273 6.8555-6.3516 1.2539-1.3594 0.58984-3.707-0.75781-4.6914-1.6172-1.1484-3.4531-0.56641-4.6914 0.78516z"/>
  <path d="m558.36 307.77c2.2305-2.0156 3.9258-4.5938 4.6523-7.5273 0.44141-1.7812-0.078125-3.625-1.9375-4.3281-1.5742-0.59375-3.8906 0.15234-4.3281 1.9336-0.44141 1.8555-1.2617 3.4648-2.6875 4.7617-3.2031 2.8828 1.0664 8.0625 4.3008 5.1602z"/>
  <path d="m545.91 299.21c-0.51953 1.5742-1.2148 2.9844-2.1602 4.3633-2.4531 3.5547 2.9922 7.4766 5.4766 3.8984 1.2422-1.8047 2.2734-3.7695 2.957-5.8594 1.3633-4.1133-4.9258-6.5156-6.2734-2.4023z"/>
  <path d="m558.87 313.25c-0.64453 1.418-2.0898 2.457-3.3984 3.2539-1.5508 0.95312-2.4688 2.6367-1.6367 4.4414 0.69922 1.5352 2.9102 2.6133 4.4648 1.6445 2.8711-1.7812 5.4375-3.7852 6.8281-6.957 1.7852-3.9492-4.5273-6.3242-6.2578-2.3828z"/>
  <path d="m541.47 318.68c-0.20312 0.52734-0.30859 0.64844-0.72656 1.0234-3.3477 2.7539 0.94141 7.9297 4.2891 5.1641 1.2227-1.0234 2.1523-2.2969 2.7109-3.793 1.5352-4.0547-4.7539-6.4531-6.2734-2.3945z"/>
  <path d="m532.36 330.88-3.3203 3.0977c-3.1523 2.9531 1.1328 8.1406 4.3047 5.168l3.3086-3.0977c3.1484-2.9414-1.125-8.1602-4.293-5.168z"/>
  <path d="m192.02 334.02c-1.1094-0.48047-2.3672-0.80078-3.3828-1.4609-3.6445-2.3477-7.543 3.1094-3.9023 5.4609 1.5273 0.98047 3.2539 1.5586 4.8945 2.2617 3.9922 1.7422 6.3672-4.5391 2.3906-6.2617z"/>
  <path d="m167.33 323.63c-2.3906-0.90234-4.9062-1.5195-7.4766-1.6367-4.3047-0.21875-5.0117 6.4414-0.68359 6.668 2.0391 0.10547 3.8711 0.51953 5.7617 1.2617 4.0547 1.5352 6.457-4.7344 2.3984-6.293z"/>
  <path d="m178.3 333.31c-0.90625-0.28516-1.7148-0.64453-2.5078-1.1719-3.5898-2.4062-7.5156 3.0508-3.875 5.4531 1.2148 0.83594 2.5586 1.5352 3.9648 2.0117 4.1211 1.3711 6.5117-4.8945 2.418-6.293z"/>
  <path d="m152.69 327.78c-2.2852-0.6875-4.6094-1.2031-6.9766-1.3281-4.3359-0.21094-5.0508 6.4688-0.70703 6.6914 1.8086 0.09375 3.5508 0.38672 5.2812 0.90234 1.7695 0.52734 3.6641-0.14062 4.3359-1.9336 0.625-1.6094-0.1875-3.8164-1.9336-4.332z"/>
  <path d="m150.06 324.75c4.2852-0.69531 3.1758-7.3203-1.1094-6.6133-1.293 0.20312-2.8672 0.65625-4.1875 0.30078-1.7695-0.46484-3.6289 0.089844-4.3281 1.9414-0.59375 1.5742 0.16406 3.8516 1.9336 4.3164 2.6055 0.69922 5.0547 0.49609 7.6914 0.054688z"/>
  <path d="m131.41 325.29c-0.86719 0.14453-1.6367 0.29688-2.4961 0.11719-1.7812-0.375-3.4961 1.3086-3.6797 2.9961-0.20312 1.9531 1.1992 3.2969 2.9922 3.6914 1.418 0.27344 2.8828 0.066406 4.2656-0.17969 4.2852-0.69531 3.168-7.3086-1.082-6.625z"/>
  <path d="m121.49 318.97c-1.5469-0.35938-2.8438-1.2383-3.9883-2.2969-1.3438-1.2305-3.7305-0.57812-4.6914 0.77734-1.1523 1.6133-0.56641 3.4492 0.78906 4.6758 2.0547 1.8984 4.4961 2.8711 7.1797 3.5234 1.7812 0.4375 3.5352-1.3438 3.6914-2.9961 0.21484-1.9922-1.1953-3.2617-2.9805-3.6836z"/>
  <path d="m114.56 308.52c0.33594-0.94141 0.88672-1.8047 1.2422-2.7617 1.5078-4.0547-4.7773-6.4453-6.2773-2.3984-0.35938 0.95312-0.89063 1.8203-1.2383 2.7617-1.5391 4.0625 4.7695 6.457 6.2734 2.3984z"/>
  <path d="m204.93 342.52c-1.7734-0.46484-3.6289 0.11719-4.3438 1.9531-0.60547 1.5742 0.18359 3.8398 1.9414 4.3164 2.8711 0.79688 5.2539 2.4531 7.668 4.1719 3.5156 2.5195 7.4297-2.9453 3.8984-5.4609-2.8281-2.0117-5.7773-4.0625-9.1641-4.9805z"/>
  <path d="m589.13 258.43c-10.949-6.4922-24.297-6.8555-36.68-5.8398-15.203 1.2539-30.16 4.5078-45.207 6.9141-12.523 2.0156-25.25 2.9453-37.734 5.0117-8.3555 1.3828-17.512 4.1719-26.039 3.0508-2.1172-4.8828-4.1602-9.8164-6.0859-14.789-5.8203-14.914-11.84-30.172-19.203-44.387-7.6484-14.719-18.082-28.086-34.559-33.164-19.699-6.0859-40.719-5.918-61.086-3.8867-14.152 1.418-34.105 1.1133-46.188 9.9336-13.043 9.5273-14.582 28.207-14.934 43.062-0.53125 20.574 2.8125 41.559-0.22266 61.996-0.59375 3.9531-1.25 7.9297-1.8438 11.891-21.262-3.3086-42.676 0.72266-64.035-0.125-22.211-0.86328-43.938-6.0938-66.258-5.4219-11.059 0.33203-29.973 1.6953-31 16.121-0.82422 11.34 8.9492 25.898 20.031 28.648 8.4297 2.0938 17.059 1.2773 25.621 2.1953 11.641 1.2812 23.07 3.7344 34.273 7.1523 20.301 6.1992 39.848 14.508 59.891 21.449 42.438 14.695 88.395 21.66 133.26 21.645 47.402-0.015625 96.453-7.1562 139.69-27.469 20.68-9.7227 39.957-21.973 58.195-35.684 12.859-9.6758 27.281-20.727 31.977-36.863 3.2734-11.207-1.6602-25.395-11.867-31.441zm-147.89 12.594c3.7344 8.293 8.4219 20.707 17.035 25.574 0 0.035157-0.015625 0.0625-0.015625 0.089844 0.039062 2.5938-2.5352 4.793-6.2539 6.6367 0.09375-2.2227-2-4.6016-4.6719-3.4102 2.6367-1.1719 2.7148 0.46875-0.11719-1.832-1.3047-1.0625-2.6094-2.1289-3.875-3.2305-4.5039-3.9492-8.9922-7.7969-13.16-12.098-7.2617-7.4258-14.984-14.332-23-20.934 2.5977-0.56641 5.1953-1.1133 7.7617-1.8125 6.4805-1.7734 12.441-4.7227 19.035-6.1641 2.3477 5.7617 4.6992 11.52 7.2617 17.18zm-149.05 50.352c-5.4883-3.8711-8.2773-11.363-11.582-17.008-4-6.832-8.2305-13.328-11.621-20.492-0.80469-1.7148-2.4258-2.082-3.8359-1.6914 0.011718-0.10156 0.027344-0.19531 0.039062-0.29688 0.35156-3.0898 0.51562-6.1836 0.61719-9.2773 8.6289 0.042969 17.203 0.95312 25.781 1.6445-0.30078 0.72656-0.26953 1.6016 0.30859 2.5352 6.0273 9.7734 10.551 19.73 17.219 29.227 4.2656 6.0469 7.6211 13.473 13.25 18.441-9.7109 0.44141-19.434 0.46875-29.137 0.86719 0.58594-1.2969 0.47266-2.8789-1.0391-3.9492zm34.945-1.5195c-6.125-4.8789-10.539-14.934-15.121-21.262-5.5117-7.6094-8.793-15.898-13.574-23.828 3.7461 0.20703 7.4922 0.32031 11.262 0.22266 5.7578-0.15625 11.492-0.53125 17.215-1.0195-0.12891 0.62891-0.10156 1.3164 0.32422 2.0664 5.4609 9.7422 13.895 16.234 21.203 24.434 5.8477 6.5898 10.879 14.582 17.594 20.328-12.66 1.5117-25.363 2.625-38.102 3.332 0.70312-1.332 0.69922-3.0742-0.80078-4.2734zm43.297-4.0469c-7.4609-6.1719-12.453-15.395-19.32-22.223-6.4023-6.3789-13.199-12.285-17.707-20.238 5.6289-0.59375 11.238-1.2891 16.832-2.1289 4.8711-0.73438 9.7383-1.4688 14.609-2.207-0.22266 1.1211 0.050782 2.3398 1.2227 3.2383 7.3203 5.668 12.156 14.039 19.02 20.273 7.8906 7.1641 16.152 13.883 23.309 21.789-5.332 1.0039-10.672 1.9414-16.027 2.8242-7.043 1.1602-14.113 2.1445-21.184 3.0508 0.73828-1.3555 0.75391-3.1406-0.75391-4.3789zm44.75-2.8789c-0.003906-0.67188-0.19141-1.3672-0.76562-2.0273-8.3047-9.3789-18.258-16.871-27.211-25.559-5.6562-5.4805-9.8906-12.18-15.855-17.309 7.3711-1.1328 14.727-2.2969 22.07-3.5391 2.207-0.375 4.4023-0.80078 6.6016-1.2031 0.078124 0.81641 0.44922 1.6289 1.2539 2.2773 11.633 9.4531 21.578 20.551 32.906 30.285 2.3516 2.0234 7.4297 7.9336 11.859 9.8672-7.5391 2.5352-16.289 4.0898-19.18 4.7539-3.8711 0.89453-7.7773 1.6641-11.68 2.4531zm-150.32-91.094c1.0234-17.344 3.7109-37.145 23.184-42.094 17.242-4.3867 36.398-6.0312 54.125-6.25 18.988-0.22266 42.324 0.75 57.082 14.352 12.977 11.945 19.234 28.844 25.988 44.672 2.5938 6.0469 5.0195 12.137 7.4688 18.223-5.4258 1.2578-10.477 3.3594-15.805 5.1211-4.6328 1.5391-9.4023 2.6367-14.207 3.5742-0.011718 0-0.015624 0.003906-0.027343 0.003906-3.2578 0.63281-6.5312 1.2031-9.7891 1.7344-14.375 2.3359-28.773 4.6484-43.172 6.7266-15.133 2.1953-30.488 4.0781-45.801 3.7695-12.723-0.25391-25.324-2.3516-38.023-2.4023 0.15234-15.773-1.9258-31.695-1.0234-47.43zm-2.6836 80.719c0.62109-4.4648 1.332-8.9141 2-13.371 4.0312 7.9805 8.8984 15.41 13.289 23.195 2.6445 4.6406 5.3633 9.7148 9.4648 13.242-8.0195 0.50781-17.496 1.625-25.094-1.7344-0.023438-0.20312-0.050782-0.39062-0.16406-0.60547-2.75-5.5508-0.3125-14.914 0.50391-20.727zm333.64-8.2188c-6.0273 11.996-16.832 20.719-27.355 28.637-27.133 20.418-56.5 37.961-89.117 48.055-49.195 15.227-101.72 18.715-152.78 12.988-25.059-2.8242-50.418-7.1172-74.531-14.629-21.98-6.8359-43.086-16.133-64.965-23.246-10.543-3.4141-21.273-6.5352-32.223-8.3398-10.09-1.6523-20.242-1.1875-30.285-2.5039-11.789-1.5742-20.156-10.086-22.598-21.812-2.5742-12.426 8.9531-15.691 19.145-16.805 24.121-2.6562 47.371 3.7578 71.277 4.6875 22.16 0.86719 44.492-3.1992 66.504 0.19531-0.39062 2.8906-0.75781 5.75-1.0234 8.6289-0.34766 4.0156-1.1328 9.0312 0.20703 13.07-0.82422 0.65625-1.1133 1.8984 0.042969 2.5312 7.125 4.0195 15.574 3.875 23.531 3.4727 12.938-0.67578 25.895-0.77344 38.848-1.3789 24.938-1.1641 49.711-3.668 74.34-7.7617 14.965-2.4766 30.078-5.125 44.625-9.4883 5.707-1.6914 21.973-5.0898 22.125-13.383 0.85547-0.72266 1.0312-2.3594-0.35156-2.9336-7.1172-2.9688-11.227-12.578-14.332-19.062-0.66016-1.3672-1.2383-2.7734-1.8555-4.1562 11.352 0.93359 23.852-3.125 34.945-4.3672 15.281-1.7188 30.43-4.207 45.555-6.9258 18.297-3.2773 44.828-9.8398 61.633 1.3594 10.734 7.1484 14.461 21.582 8.6367 33.168z"/>
   </g>
</svg>
