<svg width="503" height="503" viewBox="0 0 503 503" fill="none" xmlns="http://www.w3.org/2000/svg">
<path d="M352 151.218C352.002 147.891 350.682 144.696 348.331 142.342C345.98 139.987 342.788 138.662 339.46 138.66L301.814 138.632C298.486 138.629 295.292 139.949 292.937 142.3C290.583 144.651 289.258 147.843 289.255 151.171L289.239 173.132C289.253 177.078 291.107 180.791 294.251 183.174L313.064 197.301C315.228 198.949 317.871 199.845 320.591 199.847C323.311 199.849 325.956 198.957 328.122 197.312L346.956 183.214C350.106 180.838 351.966 177.125 351.983 173.179L352 151.218ZM339.434 173.169L320.601 187.273L301.788 173.141L301.804 151.181L339.451 151.209L339.434 173.169Z" fill="black"/>
<path d="M201.423 138.557L163.777 138.528C160.449 138.526 157.255 139.846 154.9 142.197C152.545 144.548 151.221 147.74 151.218 151.068L151.202 173.028C151.207 176.975 153.062 180.694 156.214 183.071L175.027 197.197C177.202 198.821 179.84 199.697 182.554 199.699C185.268 199.701 187.908 198.829 190.085 197.208L208.919 183.105C212.075 180.732 213.935 177.016 213.946 173.07L213.963 151.115C213.965 147.787 212.645 144.593 210.294 142.238C207.943 139.884 204.751 138.559 201.423 138.557ZM201.397 173.066L182.563 187.17L163.751 173.038L163.767 151.077L201.414 151.105L201.397 173.066Z" fill="black"/>
<path d="M441.253 363.174C441.253 363.112 441.253 363.112 441.191 363.112L436.879 338.451L436.879 338.448C436.333 335.148 434.481 332.206 431.74 330.288C429.898 328.981 427.725 328.217 425.467 328.087L385.817 72.0609C385.285 68.59 384.161 65.239 382.5 62.1455C382.374 61.9578 382.312 61.7701 382.186 61.5795C378.164 54.3498 371.448 49.0004 363.5 46.6976L336.526 38.9602L314.456 16.7925C312.105 14.4574 308.927 13.1469 305.613 13.1472L197.815 13.0664C194.504 13.0724 191.327 14.3753 188.966 16.6984L166.863 38.8302L139.877 46.5271L139.877 46.5299C131.926 48.8208 125.202 54.1601 121.169 61.3838C121.06 61.5602 120.976 61.7506 120.917 61.9494C119.203 65.0237 118.055 68.3814 117.523 71.8597L77.4886 327.761C74.7126 327.964 72.0843 329.085 70.0157 330.946C67.9471 332.807 66.5559 335.305 66.0609 338.041L61.7119 362.761C61.138 366.037 61.8833 369.408 63.786 372.137C65.6886 374.864 68.5948 376.729 71.8657 377.325L133.661 388.291L133.661 388.288C134.386 388.414 135.12 388.477 135.857 388.48C138.801 388.468 141.65 387.428 143.91 385.539C146.169 383.65 147.694 381.032 148.226 378.136L149.233 372.303L217.67 393.247L217.673 393.247C218.874 393.598 220.121 393.767 221.373 393.751C223.933 393.756 226.435 392.971 228.529 391.496C231.715 389.342 233.695 385.808 233.869 381.965L234.949 364.46L268.016 364.484L269.07 381.992L269.067 381.992C269.258 385.177 270.654 388.169 272.971 390.362C275.289 392.557 278.355 393.783 281.546 393.797C282.798 393.814 284.044 393.647 285.249 393.298L353.656 372.456L354.654 378.165C355.153 381.073 356.656 383.715 358.901 385.633C361.146 387.548 363.994 388.617 366.943 388.653C367.705 388.662 368.464 388.578 369.204 388.403L431.015 377.594C434.271 377.012 437.168 375.173 439.084 372.475C440.996 369.779 441.777 366.437 441.253 363.171L441.253 363.174ZM379.823 115.536L413.043 329.83L366.041 338.014L379.823 115.536ZM197.803 25.6143L305.537 25.695L325.975 46.1635L304.662 104.752L278.885 91.8698L301.254 47.3382L289.964 41.6828L284.875 52.0321C263.235 58.478 240.182 58.4607 218.555 51.9824L213.417 41.6254L202.118 47.2639L224.421 91.829L198.686 104.734L177.397 46.0521L197.803 25.6143ZM123.382 115.408L136.893 337.848L89.9058 329.53L123.382 115.408ZM135.862 375.931L74.067 364.966L78.416 340.247L140.211 351.212L135.862 375.931ZM221.377 381.203L151.433 359.879L152.567 353.418L152.57 353.418C153.222 349.757 152.189 345.997 149.754 343.189L133.021 66.2196C135.444 62.5128 139.121 59.7986 143.38 58.5719L166.225 52.0625L186.888 108.987L186.885 108.99C188.123 112.352 190.718 115.041 194.033 116.399C195.515 116.968 197.089 117.266 198.674 117.279C200.621 117.286 202.54 116.814 204.26 115.905L227.171 104.502L232.755 188.77L221.377 381.203ZM235.642 351.911L245.302 189.157L245.302 188.342L240.649 118.379C247.852 120.224 255.404 120.23 262.61 118.395L257.851 188.351L257.851 189.166L267.328 351.935L235.642 351.911ZM264.887 91.857C264.506 92.599 264.273 93.4083 264.196 94.2401L263.499 104.906C255.864 107.85 247.41 107.844 239.78 104.888L239.099 94.2213C239.024 93.3893 238.792 92.5796 238.411 91.8371L226.007 66.918L226.005 66.918C234.445 68.6806 243.045 69.5694 251.666 69.5731C260.288 69.5795 268.888 68.7036 277.332 66.9565L264.887 91.857ZM353.172 343.273C350.735 346.08 349.696 349.839 350.34 353.5L351.464 360.028L281.553 381.244L270.403 188.801L276.113 104.542L299.007 115.979C302.182 117.614 305.91 117.802 309.233 116.488C312.565 115.152 315.166 112.462 316.393 109.09L337.141 52.1964L359.976 58.7401L359.974 58.7373C364.222 59.987 367.889 62.7011 370.321 66.4005L353.172 343.273ZM367.012 376.036L362.7 351.375L424.512 340.567L428.885 365.228L367.012 376.036Z" fill="black"/>
</svg>
