<svg width="564" height="594" viewBox="0 0 564 594" fill="none" xmlns="http://www.w3.org/2000/svg">
<path d="M559.62 553.75L560.646 551.584C560.646 551.584 560.969 551.192 561.153 550.967C561.615 550.317 561.98 549.603 562.235 548.848C562.235 548.848 562.558 548.455 562.696 548.287C563.145 547.125 563.164 545.841 562.75 544.665C561.735 534.428 550.643 517.978 528.378 486.328C517.481 470.79 506.226 454.769 498.459 441.617C486.049 420.16 474.878 398.013 465 375.286L456.225 356.133C449.529 341.793 442.379 327.548 435.228 313.303C428.077 299.058 421.499 285.377 414.87 271.185C405.7 253.441 398.683 234.67 393.97 215.272C390.764 194.333 390.236 173.079 392.397 152.021L393.052 146.636C396.828 133.061 403.181 120.345 411.767 109.18C417.072 101.694 420.875 96.2642 419.589 90.6006C419.215 89.1066 418.52 87.7109 417.553 86.5102C416.586 85.3095 415.37 84.3326 413.989 83.6471C411.963 82.5232 409.687 81.9276 407.373 81.9155C405.059 81.9034 402.781 82.4752 400.75 83.5779C390.061 88.8955 382.302 106.023 380.882 115.667L380.373 118.351C378.071 117.023 375.501 116.228 372.854 116.026C366.508 116.107 360.369 118.258 355.371 122.153L319.358 145.203C310.92 151.761 300.828 155.862 290.194 157.053C282.545 156.498 275.216 153.74 269.092 149.111C257.845 141.509 248.619 131.28 242.216 119.316C235.813 107.351 232.427 94.0132 232.353 80.4612C232.351 75.7591 232.395 66.2989 225.123 62.2966C232.951 54.4922 239.859 45.8178 245.713 36.4419C251.019 29.3964 253.35 20.5484 252.209 11.789C251.877 9.86042 251.159 8.01751 250.099 6.37051C249.038 4.7235 247.657 3.30623 246.037 2.20349C242.898 0.588344 239.336 -0.00957863 235.846 0.492983C232.357 0.995547 229.115 2.57358 226.571 5.00732C221.165 9.13246 216.619 14.2739 213.187 20.1438C208.88 28.7779 205.723 37.9413 203.797 47.4007C202.016 55.7912 199.269 63.945 195.612 71.6995L193.9 68.5056C193.133 66.8836 191.795 65.5999 190.142 64.9008C188.489 64.2016 186.638 64.1362 184.944 64.7172C165.697 70.7769 147.129 78.7975 129.532 88.6529C128.519 89.2159 127.72 90.0956 127.256 91.1574C126.792 92.2192 126.689 93.4046 126.963 94.5325C128.575 101.405 130.326 108.109 132.215 114.644C107.861 122.461 84.6236 133.381 63.0765 147.135L59.2746 144.763C58.3976 144.209 57.3782 143.922 56.3421 143.939C55.306 143.956 54.2984 144.276 53.4435 144.859C50.6365 146.783 48.2547 148.304 46.1599 149.591C42.6899 151.603 39.4431 153.977 36.4734 156.672C35.6513 157.461 35.1019 158.49 34.9045 159.613L33.1853 171.457C28.6472 174.13 23.9717 176.563 19.1778 178.747C5.80039 185.616 2.52757 187.532 1.40891 190.844C-5.41554 210.62 15.9009 237.918 28.5741 254.163L30.9471 257.242C41.7877 270.313 54.0217 282.166 67.4312 292.588L76.6045 300.128C82.2322 304.753 87.5833 309.716 92.9343 314.678C98.2854 319.64 103.683 324.546 109.602 329.505C110.339 330.187 111.265 330.629 112.258 330.774C113.251 330.918 114.263 330.758 115.161 330.314C116.498 329.72 118.065 328.846 119.632 327.971L120.186 327.298L121.255 328.177C123.471 329.759 125.577 331.49 127.558 333.358L129.922 335.3C129.202 336.675 128.785 338.187 128.698 339.737C128.612 341.287 128.857 342.839 129.418 344.288C131.57 347.943 134.435 351.129 137.842 353.657C140.776 356.075 143.88 358.28 147.129 360.256C148.768 361.46 150.755 362.097 152.786 362.07C154.818 362.042 156.783 361.351 158.382 360.103C165.767 365.648 172.83 371.61 179.536 377.96C178.899 378.61 178.401 379.384 178.074 380.234C177.747 381.084 177.598 381.993 177.635 382.904C177.672 383.815 177.895 384.709 178.29 385.532C178.686 386.354 179.245 387.088 179.933 387.688C188.836 396.363 198.457 404.27 208.691 411.325C210.1 412.221 211.713 412.745 213.378 412.847C215.043 412.949 216.705 412.625 218.208 411.907C218.817 411.457 219.565 411.232 220.323 411.272C221.082 411.312 221.803 411.615 222.365 412.127C222.815 412.497 222.855 413.94 223.023 414.079C220.384 418.209 218.405 421.189 257.817 451.138C258.721 451.831 259.822 452.216 260.959 452.236C262.097 452.257 263.21 451.913 264.134 451.253L268.089 448.392L276.136 455.007C275.721 455.512 275.306 456.017 274.891 456.522C274.395 457.047 274.013 457.668 273.766 458.346C273.519 459.025 273.414 459.747 273.457 460.469C273.499 461.19 273.689 461.896 274.013 462.543C274.338 463.189 274.792 463.763 275.346 464.229L279.71 468.098C289.347 477.311 299.982 485.422 311.416 492.278C312.952 492.823 314.593 492.998 316.207 492.789C317.821 492.579 319.362 491.992 320.704 491.074L323.855 493.664C326.752 495.258 329.328 497.375 331.453 499.908C330.06 501.541 329.371 503.659 329.535 505.801C329.699 507.944 330.704 509.937 332.329 511.347C339.414 518.674 357.657 534.797 373.688 526.537C375.659 525.249 377.187 523.389 378.069 521.206L378.53 520.645C380.372 520.963 382.113 521.717 383.607 522.843C382.918 525.275 381.896 527.599 380.571 529.75C379.455 531.681 378.514 533.708 377.761 535.807C377.389 536.973 377.439 538.234 377.901 539.369C378.363 540.505 379.208 541.444 380.29 542.023L392.54 548.801C403.491 554.982 414.723 561.393 425.291 566.318L450.403 578.214C452.834 579.554 455.595 580.173 458.361 579.998C461.127 579.823 463.784 578.862 466.018 577.228C468.764 580.896 472.356 583.847 476.486 585.832C477.019 586.116 477.597 586.305 478.195 586.39C482.538 587.545 487.134 587.266 491.297 585.594L492.084 586.242C498.466 590.662 506.031 593.053 513.785 593.1C521.539 593.146 529.119 590.847 535.528 586.504C547.294 578.499 553.657 566.054 559.62 553.75ZM472.81 533.169C472.837 532.653 472.786 532.135 472.658 531.634C472.144 522.578 470.595 513.608 468.041 504.898C466.808 501.3 465.303 497.8 463.539 494.429C460.421 488.011 455.218 477.248 456.721 473.124C456.782 472.84 456.909 472.574 457.094 472.349C457.278 472.125 457.514 471.948 457.782 471.834C462.248 469.957 472.837 479.789 480.526 486.955C485.261 491.431 490.3 495.573 495.608 499.351L498.479 501.71C511.577 510.784 525.116 520.125 539.352 521.39C544.81 528.465 548.978 536.442 551.666 544.956L550.882 545.91C546.064 553.608 533.596 556.617 520.58 559.833L519.166 560.176C512.972 560.255 494.771 549.244 472.826 532.806L472.81 533.169ZM405.893 92.694C406.366 92.3741 406.919 92.1904 407.49 92.1627C408.061 92.1351 408.63 92.2645 409.134 92.5371L409.19 92.5833C407.563 96.1012 405.533 99.4177 403.141 102.467C398.541 108.766 394.414 115.399 390.793 122.309C391.009 120.325 391.272 118.284 391.499 116.402C393.115 107.091 398.094 98.7055 405.493 92.8358L405.893 92.694ZM220.047 71.5695C221.679 74.2948 222.376 77.4758 222.032 80.6279C222.105 95.9529 225.925 111.039 233.16 124.572C240.395 138.105 250.824 149.675 263.541 158.275C271.443 163.996 280.844 167.277 290.579 167.712C303.375 166.676 315.583 161.946 325.72 154.099L361.359 130.929C364.383 128.389 368.088 126.793 372.016 126.338C374.097 126.771 376.019 127.771 377.568 129.227C379.118 130.683 380.235 132.539 380.795 134.588C382.184 140.078 382.522 145.779 381.79 151.389C379.537 173.373 380.124 195.563 383.535 217.413C388.393 237.666 395.683 257.264 405.247 275.78C412.213 290.25 418.802 304.033 425.671 318.046C432.541 332.06 439.856 345.876 446.218 360.507L454.926 379.511C464.937 402.56 476.26 425.02 488.841 446.78C496.638 460.239 508.184 476.593 519.251 492.27L530.705 508.736C521.469 504.578 512.721 499.406 504.623 493.316L501.753 490.957C496.895 487.471 492.27 483.67 487.909 479.578C476.409 468.904 464.617 457.896 453.745 462.404C452.133 463.044 450.674 464.014 449.462 465.252C448.25 466.49 447.311 467.969 446.705 469.593C443.56 478.008 449.244 489.449 453.89 499.285C455.375 502.138 456.669 505.086 457.764 508.109C459.311 513.54 460.432 519.081 461.114 524.684C449.536 515.826 437.119 505.808 425.209 495.173C425.142 494.469 424.934 493.786 424.596 493.165L391.114 416.192C388.605 411.632 387.296 406.512 387.312 401.314C388.44 392.37 399.395 386.613 406.139 384.259C408.353 383.564 410.615 383.035 412.908 382.677C420.973 381.126 432.022 378.925 436.458 369.973C437.914 365.962 438.407 361.664 437.896 357.423C437.385 353.182 435.886 349.117 433.518 345.556L415.71 309.859C401.546 281.201 386.974 251.548 371.71 222.737C367.588 213.204 361.26 204.781 353.248 198.161C345.27 192.761 336.262 189.071 326.794 187.324C299.231 182.502 271.418 179.262 243.493 177.619C241.44 174.845 238.733 172.62 235.614 171.143C223.278 149.746 213.203 127.129 205.555 103.658C204.492 100.246 203.579 96.769 202.609 93.2453C201.639 89.7216 200.822 86.6998 199.816 83.3346L201.435 81.9386C205.407 78.1511 209.89 74.937 214.753 72.3891C216.266 71.5387 218.035 71.2584 219.74 71.599L220.047 71.5695ZM228.17 301.351C227.133 301.073 226.036 301.124 225.032 301.498L220.109 293.032C208.115 272.174 195.64 250.639 173.768 239.619L168.129 236.959C163.458 235.299 159.173 232.705 155.536 229.335C153.963 227.438 152.689 225.312 151.757 223.033C172.94 225.024 185.118 226.384 187.76 226.956C201.761 229.974 214.145 238.107 222.482 249.761C226.517 256.004 229.911 262.637 232.613 269.558L233.401 270.205C237.426 278.389 240.306 287.083 241.961 296.045C242.065 296.589 242.011 297.152 241.805 297.666C241.6 298.18 241.252 298.624 240.802 298.946C237.017 301.229 232.537 302.082 228.17 301.351ZM252.662 294.498C250.844 284.699 247.674 275.196 243.244 266.261L242.779 265.221C239.814 257.871 236.12 250.835 231.753 244.218C221.858 230.354 207.143 220.675 190.501 217.081C186.227 216.201 166.339 214.24 149.482 212.607L148.318 214.941L147.159 212.107C140.149 199.416 129.829 188.855 117.3 181.549C150.648 177.342 184.329 176.314 217.89 178.481C221.046 178.222 224.223 178.624 227.218 179.662C230.214 180.699 232.962 182.349 235.286 184.506C237.582 188.367 266.918 251.684 282.746 285.66L296.765 315.986L306.256 336.103C309.47 342.976 312.675 349.747 315.639 356.696C316.696 358.669 317.285 360.858 317.359 363.092C317.017 364.33 316.353 365.455 315.434 366.351C314.515 367.247 313.375 367.883 312.128 368.195C308.449 368.959 304.627 368.683 301.091 367.397C300.546 367.257 299.983 367.206 299.422 367.248C297.731 363.937 295.565 360.89 292.994 358.203C286.91 352.657 279.667 348.534 271.794 346.137C268.728 344.934 265.719 343.777 262.792 342.405C249.907 335.323 239.211 324.84 231.873 312.104C237.686 311.986 243.304 310.015 247.907 306.479C249.636 305.038 250.977 303.188 251.808 301.096C252.638 299.003 252.932 296.736 252.662 294.498ZM305.892 310.043L292.538 281.204L276.889 247.469C301.335 252.143 322.5 270.104 339.491 284.538C344.249 288.109 348.341 292.491 351.578 297.482C352.54 298.808 352.945 300.457 352.706 302.075C351.777 302.955 350.682 303.64 349.485 304.093C348.287 304.545 347.011 304.755 345.731 304.71C332.603 306.8 319.117 308.409 305.984 309.931L305.892 310.043ZM315.171 379.063C318.51 378.221 321.524 376.412 323.836 373.865C326.147 371.317 327.655 368.143 328.17 364.739C328.312 360.739 327.42 356.767 325.578 353.207C322.604 346.156 319.323 339.134 316.052 332.215L310.553 320.549C322.887 319.31 335.349 317.801 347.678 315.994C350.737 315.905 353.723 315.048 356.36 313.503C358.998 311.958 361.202 309.774 362.772 307.152C363.648 304.857 363.965 302.384 363.695 299.939C363.426 297.494 362.578 295.147 361.221 293.091C357.39 286.971 352.478 281.596 346.725 277.228C328.778 262.007 306.477 243.019 279.241 237.838C276.745 237.356 274.211 237.099 271.67 237.069C261.52 215 253.889 199.044 249.443 189.654C274.785 191.287 300.021 194.326 325.034 198.758C333.042 200.166 340.671 203.234 347.43 207.764C354.048 213.378 359.278 220.444 362.711 228.409C377.908 257.071 392.527 286.668 406.634 315.28L424.442 350.977C425.938 353.136 426.967 355.583 427.463 358.16C427.959 360.738 427.911 363.388 427.323 365.943C425.261 370.172 417.504 371.693 411.319 372.909C408.371 373.422 405.472 374.185 402.655 375.19C387.184 381.278 378.433 389.974 376.894 401.025C376.775 407.692 378.372 414.282 381.533 420.163L407.432 479.057C397.2 469.707 387.527 460.252 379.03 451.2L372.14 443.751C358.751 427.746 343.031 413.843 325.509 402.509L322.822 400.959C319.543 399.303 316.476 397.256 313.689 394.863C309.525 390.166 306.42 384.632 304.584 378.635C307.98 379.318 311.477 379.315 314.869 378.627L315.171 379.063ZM232.81 13.7079C233.741 12.7313 234.9 12.0002 236.184 11.5792C237.468 11.1582 238.836 11.0604 240.168 11.2944C240.913 12.046 241.406 13.0098 241.579 14.0523C241.993 20.0845 240.176 26.0521 236.472 30.8207C229.495 42.0216 220.902 52.129 210.969 60.817C211.965 57.3107 212.894 53.6559 213.788 50.1595C215.538 41.7437 218.321 33.579 222.075 25.8507C224.82 21.1369 228.468 17.011 232.81 13.7079ZM185.472 75.7759C188.296 82.4385 190.553 89.3256 192.219 96.3639C193.199 99.99 194.133 103.672 195.262 107.232C202.056 128.365 210.869 148.801 221.579 168.257L218.661 168.021C200.81 166.793 182.877 166.814 165.189 167.225C153.298 144.841 144.35 121.022 138.567 96.3609C153.547 88.1015 169.246 81.212 185.472 75.7759ZM135.616 124.961C140.513 139.736 146.537 154.116 153.634 167.976C137.952 168.813 122.183 170.331 106.782 172.434C105.912 172.577 105.094 172.94 104.406 173.489L73.4074 153.84C92.8143 141.688 113.626 131.93 135.391 124.776L135.616 124.961ZM529.827 577.494C519.875 583.98 504.229 584.66 496.664 575.622C495.908 574.721 494.879 574.09 493.733 573.828C492.587 573.565 491.387 573.683 490.317 574.166L488.054 575.314C485.895 576.599 483.313 576.977 480.87 576.367C478.391 575.16 476.231 573.385 474.567 571.186C472.982 569.097 471.11 567.242 469.007 565.676C468.384 565.243 467.678 564.945 466.933 564.803C466.189 564.661 465.423 564.678 464.687 564.851C463.934 565.027 463.228 565.36 462.616 565.828C462.003 566.297 461.497 566.891 461.132 567.571C460.86 568.101 460.477 568.566 460.009 568.935C459.54 569.303 458.998 569.566 458.418 569.705C457.838 569.844 457.234 569.856 456.648 569.741C456.062 569.626 455.508 569.386 455.023 569.037L429.911 557.141C419.502 552.252 408.382 545.933 397.554 539.948L389.505 535.4L390.058 534.727C392.949 530.701 394.378 525.806 394.108 520.851C392.627 517.232 389.976 514.211 386.579 512.271C383.181 510.331 379.234 509.584 375.369 510.15C373.898 510.597 372.55 511.375 371.427 512.423C370.304 513.472 369.436 514.763 368.889 516.199C368.566 516.592 368.289 516.928 368.012 517.265C360.474 520.471 349.048 513.148 340.566 504.767C341.589 503.323 342.16 501.608 342.205 499.837C342.25 498.066 341.768 496.321 340.82 494.821C337.983 490.452 334.13 486.834 329.591 484.276C328.24 483.166 326.946 482.102 325.764 481.13C324.257 480.061 322.45 479.495 320.604 479.515C318.758 479.535 316.967 480.139 315.489 481.241L314.936 481.914C304.967 475.333 295.541 467.964 286.75 459.876L287.903 458.473C288.447 457.958 288.874 457.333 289.158 456.64C289.442 455.947 289.575 455.201 289.55 454.452C289.524 453.703 289.34 452.967 289.01 452.293C288.68 451.619 288.21 451.022 287.633 450.542L271.875 437.59C270.972 436.837 269.846 436.404 268.672 436.358C267.499 436.312 266.344 436.656 265.389 437.336L261.24 440.319C251.482 433.073 242.191 425.217 233.424 416.798C234.005 414.394 233.895 411.872 233.107 409.523C232.319 407.174 230.885 405.092 228.969 403.518C227.054 401.943 224.734 400.939 222.277 400.621C219.819 400.303 217.324 400.683 215.078 401.719L214.709 402.168C206.071 396.144 197.923 389.447 190.34 382.139C191.312 380.559 191.738 378.703 191.555 376.855C191.371 375.007 190.588 373.267 189.325 371.902C181.833 364.539 173.849 357.694 165.428 351.415C164.631 350.605 163.682 349.959 162.636 349.517C161.59 349.075 160.467 348.844 159.332 348.838C158.197 348.832 157.072 349.05 156.024 349.482C154.975 349.913 154.023 350.548 153.223 351.35C148.384 348.495 144.017 344.905 140.279 340.711L141.017 339.813C141.954 338.222 142.36 336.374 142.178 334.534C141.995 332.694 141.233 330.958 140.001 329.576L136.005 326.292C133.794 324.208 131.444 322.276 128.971 320.51L125.482 317.642C124.727 317.074 123.835 316.717 122.897 316.608C121.96 316.498 121.011 316.64 120.148 317.019C118.811 317.613 117.29 318.431 115.723 319.305L115.261 319.866C110.534 315.981 106.073 311.656 101.643 307.639C96.2458 302.733 90.8948 297.77 84.9755 292.811L74.4515 284.161C61.6641 274.216 49.9887 262.917 39.6299 250.464L36.5143 247.715C26.1477 234.4 7.12767 209.929 10.7894 195.263C12.9101 193.716 19.2556 190.47 23.6345 188.24C38.2923 180.731 42.948 178.165 43.274 173.638L44.9925 162.828C47.1957 161.284 49.4893 159.872 51.861 158.601L56.476 155.625L103.47 185.412C115.832 193.317 130.825 202.725 137.602 216.851C138.455 218.681 139.217 220.623 140.024 222.508C141.715 227.648 144.327 232.439 147.733 236.648C152.328 241.225 157.863 244.748 163.954 246.972L169.153 249.365C188.144 258.956 199.304 278.19 211.043 298.556C222.781 318.921 235.813 341.385 258.028 352.216C261.18 353.773 264.563 355.049 267.844 356.335C274.228 358.263 280.146 361.494 285.222 365.824C289.215 370.734 292.2 376.383 294.004 382.444C296.389 390.17 300.485 397.265 305.988 403.2C309.466 406.188 313.313 408.717 317.434 410.727L320.008 412.185C336.565 423.028 351.429 436.26 364.117 451.447L371.192 458.672C411.602 501.288 498.608 571.766 520.504 571.053L521.574 570.899L523.592 570.395C529.524 569.053 535.382 567.403 541.14 565.45C538.249 570.209 534.396 574.31 529.827 577.494Z" fill="black"/>
</svg>
