<svg width="101" height="92" viewBox="0 0 101 92" fill="none" xmlns="http://www.w3.org/2000/svg">
<path d="M72.7538 0.973145C64.1224 0.973145 55.8382 4.99123 50.4311 11.3408C45.0241 4.99123 36.7399 0.973145 28.1085 0.973145C12.8298 0.973145 0.825195 12.9778 0.825195 28.2564C0.825195 47.0074 17.6912 62.2861 43.2383 85.5016L50.4311 92L57.624 85.452C83.171 62.2861 100.037 47.0074 100.037 28.2564C100.037 12.9778 88.0324 0.973145 72.7538 0.973145ZM50.9272 78.1104L50.4311 78.6064L49.9351 78.1104C26.3226 56.7302 10.7464 42.5925 10.7464 28.2564C10.7464 18.3352 18.1873 10.8943 28.1085 10.8943C35.7478 10.8943 43.1887 15.8053 45.8178 22.6013H55.0941C57.6736 15.8053 65.1145 10.8943 72.7538 10.8943C82.675 10.8943 90.1159 18.3352 90.1159 28.2564C90.1159 42.5925 74.5396 56.7302 50.9272 78.1104Z" fill="#E65B5B"/>
</svg>
