<?xml version="1.0" encoding="UTF-8"?>
<svg width="700pt" height="700pt" version="1.1" viewBox="0 0 700 700" xmlns="http://www.w3.org/2000/svg">
 <g>
  <path d="m350 192.54c-48.117 0-87.457 39.34-87.457 87.457s39.34 87.586 87.457 87.586 87.457-39.469 87.457-87.586-39.34-87.457-87.457-87.457zm0 35.008c29.203 0 52.449 23.246 52.449 52.449s-23.246 52.578-52.449 52.578-52.449-23.375-52.449-52.578 23.246-52.449 52.449-52.449z"/>
  <path d="m297.55 17.5c-4.6641-0.019531-9.1445 1.8281-12.441 5.125-3.3008 3.3008-5.1445 7.7773-5.125 12.445v75.961l-53.742-53.742c-3.2773-3.2578-7.7148-5.0898-12.336-5.0898-4.625 0-9.0586 1.832-12.336 5.0898l-74.281 74.281c-3.2578 3.2773-5.0898 7.7109-5.0898 12.336 0 4.6211 1.832 9.0586 5.0898 12.336l53.609 53.738-75.957 0.003906c-4.6445 0.015625-9.0898 1.875-12.359 5.1719-3.2734 3.293-5.1016 7.7539-5.082 12.395v105.03c0.015625 4.6211 1.8594 9.0469 5.125 12.312 3.2695 3.2695 7.6953 5.1094 12.316 5.125h76.09l-53.742 53.742c-3.3008 3.2852-5.1523 7.7461-5.1523 12.402 0 4.6523 1.8516 9.1172 5.1523 12.402l74.281 74.281v-0.003906c3.2773 3.2578 7.7109 5.0898 12.336 5.0898 4.6211 0 9.0586-1.832 12.336-5.0898l53.738-53.738 0.003906 75.957c0.015625 4.6445 1.875 9.0898 5.1719 12.359 3.293 3.2734 7.7539 5.1016 12.395 5.082h104.9c4.6406 0.019531 9.1016-1.8086 12.395-5.082 3.2969-3.2695 5.1562-7.7148 5.1719-12.359v-75.957l53.738 53.738h0.003906c3.2773 3.2578 7.7148 5.0898 12.336 5.0898 4.625 0 9.0586-1.832 12.336-5.0898l74.281-74.277c3.2969-3.2852 5.1523-7.75 5.1523-12.402 0-4.6562-1.8555-9.1172-5.1523-12.402l-53.738-53.742h75.957c4.6445 0.019531 9.1055-1.8086 12.398-5.0781 3.2969-3.2734 5.1562-7.7188 5.1719-12.359v-105.03c0.019531-4.6641-1.8281-9.1445-5.125-12.441-3.3008-3.3008-7.7773-5.1445-12.445-5.125h-75.957l53.738-53.609v-0.003906c3.2969-3.2852 5.1523-7.7461 5.1523-12.402 0-4.6523-1.8555-9.1172-5.1523-12.398l-74.281-74.281c-3.2773-3.2578-7.7109-5.0898-12.336-5.0898-4.6211 0-9.0586 1.832-12.336 5.0898l-53.738 53.738-0.003906-75.957c0.019531-4.668-1.8242-9.1445-5.125-12.445-3.2969-3.2969-7.7773-5.1445-12.441-5.125zm17.441 35.008h70.016v83.582c0.007813 3.582 1.1133 7.0781 3.168 10.012 2.0586 2.9336 4.9648 5.1641 8.332 6.3945 3.6641 1.3281 7.3125 2.75 10.848 4.3906 3.2578 1.5195 6.8984 1.9961 10.434 1.375 3.5352-0.625 6.793-2.3203 9.332-4.8594l58.906-59.035 49.605 49.605-59.035 58.906c-2.5352 2.5391-4.2344 5.7969-4.8555 9.332-0.625 3.5352-0.14844 7.1797 1.3711 10.434 1.6484 3.5469 3.1836 7.1758 4.5195 10.852 1.2305 3.3633 3.4609 6.2734 6.3945 8.3281 2.9336 2.0547 6.4297 3.1602 10.012 3.168h83.453v70.02h-83.453c-3.6211-0.011719-7.1523 1.1016-10.117 3.1836-2.9609 2.082-5.2031 5.0312-6.418 8.4414-1.3281 3.6641-2.7539 7.1836-4.3906 10.723-1.5195 3.2539-1.9961 6.8945-1.3711 10.434 0.62109 3.5352 2.3203 6.793 4.8555 9.332l59.039 59.035-49.477 49.477-59.039-59.035c-2.5391-2.5391-5.7969-4.2344-9.332-4.8594-3.5352-0.62109-7.1797-0.14453-10.434 1.375-3.5469 1.6484-7.1758 3.1797-10.852 4.5234-3.3633 1.2266-6.2695 3.4609-8.3281 6.3945-2.0547 2.9336-3.1602 6.4297-3.168 10.012v83.453h-70.016v-83.453c-0.007813-3.582-1.1133-7.0781-3.1719-10.012-2.0547-2.9336-4.9609-5.168-8.3281-6.3945-3.6641-1.332-7.3125-2.8867-10.852-4.5234-3.2539-1.5195-6.8945-1.9961-10.43-1.375-3.5352 0.625-6.793 2.3203-9.332 4.8594l-59.039 59.035-49.477-49.477 59.035-59.035c2.5391-2.5391 4.2383-5.7969 4.8594-9.332 0.625-3.5391 0.14453-7.1797-1.3711-10.434-1.6484-3.5469-3.1836-7.1758-4.5195-10.852-1.2305-3.3633-3.4609-6.2734-6.3945-8.3281-2.9336-2.0547-6.4297-3.1641-10.012-3.168h-83.453v-70.02h83.453c3.6055 0.019531 7.125-1.0742 10.086-3.1328 2.9609-2.0547 5.2109-4.9766 6.4492-8.3633 1.3281-3.6641 2.7539-7.3125 4.3906-10.852 1.4883-3.2383 1.9531-6.8555 1.3281-10.363s-2.3047-6.7422-4.8125-9.2734l-59.039-59.035 49.477-49.605 59.039 59.035c2.5391 2.5391 5.7969 4.2344 9.332 4.8594 3.5352 0.62109 7.1758 0.14453 10.434-1.375 3.5469-1.6445 7.1719-3.0547 10.848-4.3906 3.3867-1.2383 6.3086-3.4883 8.3672-6.4492 2.0586-2.957 3.1523-6.4805 3.1328-10.086z"/>
 </g>
</svg>
