<?xml version="1.0" encoding="UTF-8"?>
<svg width="22" height="22" version="1.1" viewBox="0 0 700 700" xmlns="http://www.w3.org/2000/svg">
 <g>
  <path d="m555.33 18.668h-242.66c-14.852 0-29.098 5.8984-39.598 16.402-10.504 10.5-16.402 24.746-16.402 39.598v112c0 6.668 3.5547 12.828 9.332 16.164 5.7773 3.3359 12.891 3.3359 18.668 0 5.7734-3.3359 9.332-9.4961 9.332-16.164v-112c0-4.9531 1.9648-9.6992 5.4688-13.199 3.5-3.5039 8.2461-5.4688 13.199-5.4688h242.66c4.9531 0 9.6992 1.9648 13.199 5.4688 3.5039 3.5 5.4688 8.2461 5.4688 13.199v410.66c0 4.9531-1.9648 9.6992-5.4688 13.199-3.5 3.5039-8.2461 5.4688-13.199 5.4688h-242.66c-4.9531 0-9.6992-1.9648-13.199-5.4688-3.5039-3.5-5.4688-8.2461-5.4688-13.199v-112c0-6.668-3.5586-12.828-9.332-16.164-5.7773-3.3359-12.891-3.3359-18.668 0-5.7773 3.3359-9.332 9.4961-9.332 16.164v112c0 14.852 5.8984 29.098 16.402 39.598 10.5 10.504 24.746 16.402 39.598 16.402h242.66c14.852 0 29.098-5.8984 39.598-16.402 10.504-10.5 16.402-24.746 16.402-39.598v-410.66c0-14.852-5.8984-29.098-16.402-39.598-10.5-10.504-24.746-16.402-39.598-16.402z"/>
  <path d="m90.105 272.87c-1.8906 4.5664-1.8906 9.6914 0 14.258 0.92969 2.2812 2.3086 4.3477 4.0508 6.0859l93.332 93.332v0.003906c3.4766 3.6016 8.2578 5.6523 13.266 5.6953 5.0039 0.042968 9.8203-1.9258 13.359-5.4648 3.543-3.5391 5.5117-8.3555 5.4688-13.363-0.042969-5.0039-2.0977-9.7852-5.6992-13.262l-61.488-61.488h309.61c6.668 0 12.832-3.5586 16.164-9.3359 3.3359-5.7734 3.3359-12.891 0-18.664-3.332-5.7773-9.4961-9.3359-16.164-9.3359h-309.61l61.469-61.469c4.582-4.7422 6.3203-11.547 4.5781-17.902-1.7461-6.3594-6.7109-11.324-13.07-13.066-6.3555-1.7422-13.16-0.003906-17.902 4.5742l-93.332 93.332c-1.7344 1.7383-3.1055 3.8008-4.0312 6.0703z"/>
 </g>
</svg>
